#!OML:ASF X:\für Bonn\!DataBase\2005_08_10_Bjorn_Final\c3d\bjorn.ASF
:FULLY-SPECIFIED
:DEGREES
47
root -0.400017 19.2228 3.10676 -174.251 -19.7765 -177.403
lowerback -1.30219 1.02606 -1.86244
upperback 3.71907 1.37748 -2.81187
thorax 4.59316 0.599752 -1.79623
lowerneck -10.9773 -5.16099 -3.56832
upperneck 22.6918 -8.22628 3.44998
head 9.22462 -4.10338 0.795248
rclavicle 4.77083e-014 -4.13472e-014
rhumerus -45.7337 -27.4884 -73.0048
rradius 21.1018
rwrist 26.6962
rhand -8.82844 11.499
rfingers 7.12502
rthumb 17.1116 -17.7674
lclavicle 4.77083e-014 -4.13472e-014
lhumerus -25.1379 -24.5449 77.0966
lradius 59.4446
lwrist -22.6673
lhand -29.0013 -23.1883
lfingers 7.12502
lthumb -2.35292 6.77851
rfemur -20.1156 -3.71166 18.0087
rtibia 40.751
rfoot -20.0778 -9.68489
rtoes -32.0212
lfemur -20.709 0.12076 -16.8309
ltibia 33.8606
lfoot -13.1221 -7.80307
ltoes -3.27405
48
root -0.402677 19.2235 3.14072 -174.342 -20.0684 -177.296
lowerback -0.927138 0.946628 -1.94435
upperback 3.77893 1.25233 -2.89209
thorax 4.44009 0.531633 -1.8449
lowerneck -11.286 -5.2572 -3.32831
upperneck 22.7022 -8.44276 3.66233
head 9.29431 -4.15231 0.792401
rclavicle -2.74323e-014 3.18055e-014
rhumerus -45.5861 -26.6792 -73.7795
rradius 21.3123
rwrist 26.1889
rhand -9.20004 11.5555
rfingers 7.12502
rthumb 16.7539 -17.7416
lclavicle -2.74323e-014 3.18055e-014
lhumerus -24.3634 -23.9476 76.7383
lradius 61.1191
lwrist -22.7891
lhand -29.2346 -22.9621
lfingers 7.12502
lthumb -2.57827 7.00202
rfemur -21.1831 -2.70342 17.9938
rtibia 42.5399
rfoot -19.4219 -10.473
rtoes -32.4961
lfemur -20.8204 0.0165351 -16.7571
ltibia 33.8855
lfoot -12.9793 -7.99668
ltoes -3.13587
49
root -0.404135 19.2252 3.17648 -174.459 -20.3904 -177.17
lowerback -0.566238 0.866188 -1.98608
upperback 3.87994 1.12344 -2.99585
thorax 4.33939 0.461942 -1.93949
lowerneck -11.5314 -5.35651 -3.1224
upperneck 22.6085 -8.66772 3.95459
head 9.32197 -4.2003 0.824356
rclavicle -1.07344e-014 7.4743e-014
rhumerus -45.3893 -25.9844 -74.5434
rradius 21.4839
rwrist 25.731
rhand -9.53937 11.5479
rfingers 7.12502
rthumb 16.4272 -17.7765
lclavicle -1.07344e-014 7.4743e-014
lhumerus -23.3327 -23.3238 76.3529
lradius 62.6617
lwrist -22.8394
lhand -29.4125 -22.8501
lfingers 7.12502
lthumb -2.75004 7.11196
rfemur -22.3616 -1.82833 17.9895
rtibia 44.5314
rfoot -18.4959 -11.1611
rtoes -33.1046
lfemur -20.8914 -0.154003 -16.6531
ltibia 33.8508
lfoot -12.7825 -8.15418
ltoes -2.97219
50
root -0.405154 19.231 3.21194 -174.576 -20.7243 -177.026
lowerback -0.196325 0.770109 -2.04649
upperback 3.95493 0.973376 -3.07411
thorax 4.20495 0.38149 -1.99677
lowerneck -11.6682 -5.45935 -3.06003
upperneck 22.4623 -8.88529 4.31181
head 9.32102 -4.25376 0.906286
rclavicle -1.15295e-014 -6.52014e-014
rhumerus -45.2479 -25.3344 -75.1893
rradius 21.6417
rwrist 25.3157
rhand -9.74704 11.4876
rfingers 7.12502
rthumb 16.2272 -17.8533
lclavicle -1.15295e-014 -6.52014e-014
lhumerus -22.2297 -22.7284 76.0472
lradius 64.1365
lwrist -22.6637
lhand -29.6294 -22.7564
lfingers 7.12502
lthumb -2.95953 7.20277
rfemur -23.6814 -1.0432 17.989
rtibia 46.742
rfoot -17.3548 -11.647
rtoes -33.3417
lfemur -20.9252 -0.361597 -16.5266
ltibia 33.7264
lfoot -12.5496 -8.29821
ltoes -2.66186
